<mxfile host="Electron" modified="2023-10-24T08:54:06.316Z" agent="Mozilla/5.0 (Windows NT 10.0; Win64; x64) AppleWebKit/537.36 (KHTML, like Gecko) draw.io/21.6.5 Chrome/114.0.5735.243 Electron/25.3.1 Safari/537.36" etag="0IoLAaSh8S06-0IKp3cA" version="21.6.5" type="device">
  <diagram name="Page-1" id="YfjIea2Uise1u91HAw16">
    <mxGraphModel dx="1194" dy="806" grid="1" gridSize="10" guides="1" tooltips="1" connect="1" arrows="1" fold="1" page="1" pageScale="1" pageWidth="850" pageHeight="1100" math="0" shadow="0">
      <root>
        <mxCell id="0" />
        <mxCell id="1" parent="0" />
        <mxCell id="hx8cS8YKUGEQTBjKl2xY-1" value="AIO&lt;br&gt;CENTRAL" style="ellipse;shape=cloud;whiteSpace=wrap;html=1;" vertex="1" parent="1">
          <mxGeometry x="450" y="80" width="120" height="80" as="geometry" />
        </mxCell>
        <mxCell id="hx8cS8YKUGEQTBjKl2xY-19" style="edgeStyle=orthogonalEdgeStyle;curved=1;rounded=0;orthogonalLoop=1;jettySize=auto;html=1;entryX=0.16;entryY=0.55;entryDx=0;entryDy=0;entryPerimeter=0;exitX=0.5;exitY=0.045;exitDx=0;exitDy=0;exitPerimeter=0;" edge="1" parent="1" source="hx8cS8YKUGEQTBjKl2xY-2" target="hx8cS8YKUGEQTBjKl2xY-1">
          <mxGeometry relative="1" as="geometry">
            <Array as="points">
              <mxPoint x="376" y="124" />
            </Array>
          </mxGeometry>
        </mxCell>
        <mxCell id="hx8cS8YKUGEQTBjKl2xY-2" value="AIO AGENT&lt;br&gt;PROXY" style="sketch=0;aspect=fixed;pointerEvents=1;shadow=0;dashed=0;html=1;strokeColor=none;labelPosition=center;verticalLabelPosition=bottom;verticalAlign=top;align=center;fillColor=#00188D;shape=mxgraph.mscae.enterprise.d" vertex="1" parent="1">
          <mxGeometry x="340" y="240" width="72" height="90" as="geometry" />
        </mxCell>
        <mxCell id="hx8cS8YKUGEQTBjKl2xY-17" style="edgeStyle=orthogonalEdgeStyle;curved=1;rounded=0;orthogonalLoop=1;jettySize=auto;html=1;entryX=0.875;entryY=0.5;entryDx=0;entryDy=0;entryPerimeter=0;exitX=0.5;exitY=0.045;exitDx=0;exitDy=0;exitPerimeter=0;" edge="1" parent="1" source="hx8cS8YKUGEQTBjKl2xY-3" target="hx8cS8YKUGEQTBjKl2xY-1">
          <mxGeometry relative="1" as="geometry">
            <Array as="points">
              <mxPoint x="636" y="120" />
            </Array>
          </mxGeometry>
        </mxCell>
        <mxCell id="hx8cS8YKUGEQTBjKl2xY-3" value="AIO AGENT&lt;br&gt;SERVER" style="sketch=0;aspect=fixed;pointerEvents=1;shadow=0;dashed=0;html=1;strokeColor=none;labelPosition=center;verticalLabelPosition=bottom;verticalAlign=top;align=center;fillColor=#00188D;shape=mxgraph.mscae.enterprise.d" vertex="1" parent="1">
          <mxGeometry x="600" y="240" width="72" height="90" as="geometry" />
        </mxCell>
        <mxCell id="hx8cS8YKUGEQTBjKl2xY-20" style="edgeStyle=orthogonalEdgeStyle;curved=1;rounded=0;orthogonalLoop=1;jettySize=auto;html=1;entryX=0;entryY=0.5;entryDx=0;entryDy=0;entryPerimeter=0;" edge="1" parent="1" source="hx8cS8YKUGEQTBjKl2xY-6" target="hx8cS8YKUGEQTBjKl2xY-2">
          <mxGeometry relative="1" as="geometry" />
        </mxCell>
        <mxCell id="hx8cS8YKUGEQTBjKl2xY-6" value="" style="dashed=0;outlineConnect=0;html=1;align=center;labelPosition=center;verticalLabelPosition=bottom;verticalAlign=top;shape=mxgraph.weblogos.chrome" vertex="1" parent="1">
          <mxGeometry x="160" y="424.6" width="74.8" height="75.4" as="geometry" />
        </mxCell>
        <mxCell id="hx8cS8YKUGEQTBjKl2xY-16" style="edgeStyle=orthogonalEdgeStyle;curved=1;rounded=0;orthogonalLoop=1;jettySize=auto;html=1;entryX=1;entryY=0.38;entryDx=0;entryDy=0;entryPerimeter=0;exitX=0.5;exitY=0;exitDx=0;exitDy=0;" edge="1" parent="1" source="hx8cS8YKUGEQTBjKl2xY-7" target="hx8cS8YKUGEQTBjKl2xY-3">
          <mxGeometry relative="1" as="geometry" />
        </mxCell>
        <mxCell id="hx8cS8YKUGEQTBjKl2xY-7" value="" style="image;aspect=fixed;perimeter=ellipsePerimeter;html=1;align=center;shadow=0;dashed=0;spacingTop=3;image=img/lib/active_directory/database_server.svg;" vertex="1" parent="1">
          <mxGeometry x="690" y="412.3" width="82" height="100" as="geometry" />
        </mxCell>
        <mxCell id="hx8cS8YKUGEQTBjKl2xY-8" value="" style="endArrow=classic;startArrow=classic;html=1;rounded=0;entryX=0;entryY=0.5;entryDx=0;entryDy=0;" edge="1" parent="1" source="hx8cS8YKUGEQTBjKl2xY-9" target="hx8cS8YKUGEQTBjKl2xY-7">
          <mxGeometry width="50" height="50" relative="1" as="geometry">
            <mxPoint x="470" y="530" as="sourcePoint" />
            <mxPoint x="690" y="470" as="targetPoint" />
          </mxGeometry>
        </mxCell>
        <mxCell id="hx8cS8YKUGEQTBjKl2xY-10" value="" style="endArrow=classic;startArrow=classic;html=1;rounded=0;entryX=0;entryY=0.5;entryDx=0;entryDy=0;" edge="1" parent="1" source="hx8cS8YKUGEQTBjKl2xY-6" target="hx8cS8YKUGEQTBjKl2xY-9">
          <mxGeometry width="50" height="50" relative="1" as="geometry">
            <mxPoint x="235" y="462" as="sourcePoint" />
            <mxPoint x="690" y="462" as="targetPoint" />
          </mxGeometry>
        </mxCell>
        <mxCell id="hx8cS8YKUGEQTBjKl2xY-9" value="" style="shape=mxgraph.mockup.markup.redX;fillColor=#ff0000;html=1;shadow=0;whiteSpace=wrap;strokeColor=none;" vertex="1" parent="1">
          <mxGeometry x="460" y="447.3" width="40" height="30" as="geometry" />
        </mxCell>
      </root>
    </mxGraphModel>
  </diagram>
</mxfile>
